<svg width="27" height="27" viewBox="0 0 27 27" fill="none" xmlns="http://www.w3.org/2000/svg">
<g clip-path="url(#clip0_227_1918)">
<path d="M24.75 7.875H16.875V5.625H24.75V7.875ZM26.6917 19.125C26.1945 20.5841 24.4091 22.5 20.9531 22.5C17.4949 22.5 14.6936 20.5549 14.6936 16.1156C14.6936 11.7169 17.3092 9.45562 20.8429 9.45562C24.3101 9.45562 26.4274 11.4604 26.8898 14.4349C26.9775 15.0041 27.0124 15.7714 26.9966 16.8424H17.9662C18.1125 20.4548 21.8846 20.5684 23.1278 19.125H26.6917ZM18.045 14.625H23.6306C23.5125 12.8846 22.3526 12.1286 20.844 12.1286C19.1947 12.1286 18.2824 12.9926 18.045 14.625ZM7.27425 22.4865H0V5.64862H7.82212C13.9826 5.73975 14.0996 11.7731 10.8821 13.4179C14.7758 14.8354 14.9062 22.4865 7.27425 22.4865ZM3.375 12.375H7.407C10.2285 12.375 10.6762 9 7.056 9H3.375V12.375ZM7.18987 15.75H3.375V19.143H7.13363C10.5705 19.143 10.3601 15.75 7.18987 15.75Z" fill="#858585"/>
</g>
<defs>
<clipPath id="clip0_227_1918">
<rect width="27" height="27" fill="white"/>
</clipPath>
</defs>
</svg>
