<svg width="25" height="25" viewBox="0 0 25 25" fill="none" xmlns="http://www.w3.org/2000/svg">
<g clip-path="url(#clip0_227_1920)">
<path fill-rule="evenodd" clip-rule="evenodd" d="M12.5 0C5.59925 0 0 5.59925 0 12.5C0 19.4007 5.59925 25 12.5 25C19.3872 25 25 19.4007 25 12.5C25 5.59925 19.3872 0 12.5 0ZM20.7565 5.76193C22.2478 7.57863 23.1426 9.89697 23.1698 12.4051C22.8172 12.3373 19.2923 11.6188 15.7402 12.0661C15.6589 11.8899 15.5911 11.7001 15.5098 11.5103C15.2929 10.9951 15.0488 10.4664 14.8048 9.96475C18.7365 8.36497 20.526 6.0602 20.7565 5.76193ZM12.5 1.84382C15.2115 1.84382 17.6925 2.86063 19.577 4.5282C19.3872 4.79935 17.7738 6.955 13.9778 8.37852C12.2288 5.1654 10.2901 2.53525 9.99187 2.12853C10.7917 1.93872 11.6323 1.84382 12.5 1.84382ZM7.95825 2.84707C8.24295 3.22668 10.141 5.8704 11.917 9.01573C6.92787 10.3443 2.5217 10.3173 2.04718 10.3173C2.7386 7.00923 4.9756 4.25705 7.95825 2.84707ZM1.8167 12.5135C1.8167 12.4051 1.8167 12.2966 1.8167 12.1882C2.27766 12.2017 7.45663 12.2695 12.7847 10.6698C13.0965 11.2663 13.3812 11.8764 13.6524 12.4865C13.5168 12.5271 13.3677 12.5678 13.2321 12.6084C7.72777 14.3845 4.79935 19.2381 4.55533 19.6448C2.86063 17.7603 1.8167 15.2522 1.8167 12.5135ZM12.5 23.1833C10.0325 23.1833 7.75488 22.3427 5.95173 20.9328C6.14155 20.5396 8.31075 16.3639 14.3302 14.2625C14.3574 14.2489 14.3709 14.2489 14.3981 14.2353C15.9029 18.1264 16.513 21.3937 16.6757 22.3292C15.3877 22.885 13.9778 23.1833 12.5 23.1833ZM18.4517 21.3531C18.3433 20.7023 17.7739 17.584 16.3775 13.7473C19.7262 13.2185 22.6545 14.0862 23.0206 14.2083C22.5596 17.1773 20.8514 19.7397 18.4517 21.3531Z" fill="#858585"/>
</g>
<defs>
<clipPath id="clip0_227_1920">
<rect width="25" height="25" fill="white"/>
</clipPath>
</defs>
</svg>
