<svg width="24" height="25" viewBox="0 0 24 25" fill="none" xmlns="http://www.w3.org/2000/svg">
<g clip-path="url(#clip0_227_1919)">
<path d="M22.2225 0.500874H1.7715C0.795 0.500874 0 1.27562 0 2.22962V22.7676C0 23.7239 0.795 24.5001 1.7715 24.5001H22.224C23.2027 24.5001 24 23.7239 24 22.7676V2.22962C24 1.27562 23.2027 0.500874 22.2225 0.500874Z" fill="#858585"/>
<path d="M3.55872 9.49775H7.12497V20.9503H3.55872V9.49775ZM5.33922 3.79775C6.47697 3.79775 7.40173 4.7225 7.40173 5.86025C7.40173 6.998 6.47697 7.925 5.33997 7.925C4.79267 7.92381 4.2681 7.70592 3.88102 7.31898C3.49395 6.93204 3.27586 6.40756 3.27448 5.86025C3.27447 5.58921 3.3279 5.32083 3.43169 5.07045C3.53548 4.82006 3.6876 4.5926 3.87936 4.40105C4.07112 4.2095 4.29876 4.05762 4.54925 3.9541C4.79974 3.85058 5.06818 3.79745 5.33922 3.79775ZM9.35172 9.49775H12.7657V11.063H12.813C13.2885 10.163 14.4495 9.2135 16.188 9.2135C19.7925 9.2135 20.4577 11.5857 20.4577 14.669V20.951H16.9005V15.38C16.9005 14.0525 16.8765 12.3425 15.051 12.3425C13.1985 12.3425 12.9135 13.79 12.9135 15.2825V20.948H9.35697V9.4955L9.35172 9.49775Z" fill="#151515"/>
</g>
<defs>
<clipPath id="clip0_227_1919">
<rect width="24" height="24" fill="white" transform="translate(0 0.5)"/>
</clipPath>
</defs>
</svg>
