<svg width="75" height="75" viewBox="0 0 75 75" fill="none" xmlns="http://www.w3.org/2000/svg">
<g clip-path="url(#clip0_227_2047)">
<rect x="0.5" y="0.5" width="74" height="74" rx="37" fill="#373737" stroke="#4B4A4A"/>
<g clip-path="url(#clip1_227_2047)">
<mask id="mask0_227_2047" style="mask-type:luminance" maskUnits="userSpaceOnUse" x="20" y="20" width="35" height="35">
<path d="M20 20H55V55H20V20Z" fill="white"/>
</mask>
<g mask="url(#mask0_227_2047)">
<path d="M37.5 52.0833V37.5M37.5 37.5V31.6667M37.5 37.5L41.875 33.125M38.1183 47.09L47.1148 38.0935C47.9194 37.289 48.5436 36.3226 48.9462 35.2583C49.3487 34.1941 49.5203 33.0564 49.4495 31.9208C49.3788 30.7852 49.0673 29.6776 48.5358 28.6716C48.0043 27.6656 47.2649 26.7841 46.3667 26.0856C43.8315 24.1141 40.7116 23.0437 37.5 23.0437C34.2885 23.0437 31.1685 24.1141 28.6333 26.0856C27.7351 26.7841 26.9957 27.6656 26.4642 28.6716C25.9327 29.6776 25.6213 30.7852 25.5505 31.9208C25.4797 33.0564 25.6513 34.1941 26.0539 35.2583C26.4564 36.3226 27.0806 37.289 27.8852 38.0935L36.8817 47.09C37.0457 47.2539 37.2681 47.3459 37.5 47.3459C37.7319 47.3459 37.9543 47.2539 38.1183 47.09Z" stroke="#858585" stroke-width="2" stroke-linecap="round" stroke-linejoin="round"/>
</g>
</g>
</g>
<defs>
<clipPath id="clip0_227_2047">
<rect width="75" height="75" fill="white"/>
</clipPath>
<clipPath id="clip1_227_2047">
<rect width="35" height="35" fill="white" transform="translate(20 20)"/>
</clipPath>
</defs>
</svg>
