<svg width="48" height="48" viewBox="0 0 48 48" fill="none" xmlns="http://www.w3.org/2000/svg">
<rect x="0.32" y="0.32" width="47.36" height="47.36" rx="23.68" fill="#383D49" stroke="#5E6370" stroke-width="0.64"/>
<g clip-path="url(#clip0_398_865)">
<path d="M13.5 19.5H21.75" stroke="white" stroke-width="1.5" stroke-linecap="round" stroke-linejoin="round"/>
<path d="M26.25 19.5H34.5" stroke="white" stroke-width="1.5" stroke-linecap="round" stroke-linejoin="round"/>
<path d="M24 21.75C25.2426 21.75 26.25 20.7426 26.25 19.5C26.25 18.2574 25.2426 17.25 24 17.25C22.7574 17.25 21.75 18.2574 21.75 19.5C21.75 20.7426 22.7574 21.75 24 21.75Z" stroke="white" stroke-width="1.5" stroke-linecap="round" stroke-linejoin="round"/>
<path d="M15.75 30.75C16.9926 30.75 18 29.7426 18 28.5C18 27.2574 16.9926 26.25 15.75 26.25C14.5074 26.25 13.5 27.2574 13.5 28.5C13.5 29.7426 14.5074 30.75 15.75 30.75Z" stroke="white" stroke-width="1.5" stroke-linecap="round" stroke-linejoin="round"/>
<path d="M32.25 30.75C33.4926 30.75 34.5 29.7426 34.5 28.5C34.5 27.2574 33.4926 26.25 32.25 26.25C31.0074 26.25 30 27.2574 30 28.5C30 29.7426 31.0074 30.75 32.25 30.75Z" stroke="white" stroke-width="1.5" stroke-linecap="round" stroke-linejoin="round"/>
<path d="M26.2294 19.8047C27.7149 20.2227 29.0537 21.0486 30.094 22.1886C31.1342 23.3286 31.8343 24.7371 32.115 26.2547" stroke="white" stroke-width="1.5" stroke-linecap="round" stroke-linejoin="round"/>
<path d="M15.885 26.2547C16.1658 24.7372 16.8659 23.3287 17.9062 22.1887C18.9464 21.0487 20.2851 20.2228 21.7706 19.8047" stroke="white" stroke-width="1.5" stroke-linecap="round" stroke-linejoin="round"/>
</g>
<defs>
<clipPath id="clip0_398_865">
<rect width="24" height="24" fill="white" transform="translate(12 12)"/>
</clipPath>
</defs>
</svg>
