<svg width="76" height="75" viewBox="0 0 76 75" fill="none" xmlns="http://www.w3.org/2000/svg">
<g clip-path="url(#clip0_227_2046)">
<rect x="1" y="0.5" width="74" height="74" rx="37" fill="#373737" stroke="#4B4A4A"/>
<path d="M40.1875 50.625H44.5625M51.125 39.6875V44.0625M51.125 48.4375V49.75C51.125 49.9821 51.0328 50.2046 50.8687 50.3687C50.7046 50.5328 50.4821 50.625 50.25 50.625H48.9375M35.8125 50.625H34.5C34.2679 50.625 34.0454 50.5328 33.8813 50.3687C33.7172 50.2046 33.625 49.9821 33.625 49.75V48.4375M48.9375 33.125H50.25C50.4821 33.125 50.7046 33.2172 50.8687 33.3813C51.0328 33.5454 51.125 33.7679 51.125 34V35.3125M42.375 25.25V41C42.375 41.2321 42.2828 41.4546 42.1187 41.6187C41.9546 41.7828 41.7321 41.875 41.5 41.875H25.75C25.5179 41.875 25.2954 41.7828 25.1313 41.6187C24.9672 41.4546 24.875 41.2321 24.875 41V25.25C24.875 25.0179 24.9672 24.7954 25.1313 24.6313C25.2954 24.4672 25.5179 24.375 25.75 24.375H41.5C41.7321 24.375 41.9546 24.4672 42.1187 24.6313C42.2828 24.7954 42.375 25.0179 42.375 25.25Z" stroke="#858585" stroke-width="2" stroke-linecap="round" stroke-linejoin="round"/>
<path d="M44.5625 33.125H34.5C34.2679 33.125 34.0454 33.2172 33.8813 33.3813C33.7172 33.5454 33.625 33.7679 33.625 34V44.0625" stroke="#858585" stroke-width="2" stroke-linecap="round" stroke-linejoin="round"/>
</g>
<defs>
<clipPath id="clip0_227_2046">
<rect width="75" height="75" fill="white" transform="translate(0.5)"/>
</clipPath>
</defs>
</svg>
