<svg width="49" height="48" viewBox="0 0 49 48" fill="none" xmlns="http://www.w3.org/2000/svg">
<rect x="0.82" y="0.32" width="47.36" height="47.36" rx="23.68" fill="#383D49" stroke="#5E6370" stroke-width="0.64"/>
<g clip-path="url(#clip0_398_877)">
<mask id="mask0_398_877" style="mask-type:luminance" maskUnits="userSpaceOnUse" x="12" y="12" width="25" height="24">
<path d="M35.75 12.75V35.25H13.25V12.75H35.75Z" fill="white" stroke="white" stroke-width="1.5"/>
</mask>
<g mask="url(#mask0_398_877)">
<path d="M24.5 34V24M24.5 24V20M24.5 24L27.5 21M24.924 30.576L31.093 24.407C31.6447 23.8553 32.0728 23.1926 32.3488 22.4628C32.6248 21.7331 32.7425 20.953 32.694 20.1743C32.6454 19.3956 32.4319 18.6361 32.0674 17.9462C31.7029 17.2564 31.1959 16.6519 30.58 16.173C28.8416 14.8211 26.7022 14.0871 24.5 14.0871C22.2978 14.0871 20.1584 14.8211 18.42 16.173C17.8041 16.6519 17.2971 17.2564 16.9326 17.9462C16.5681 18.6361 16.3546 19.3956 16.3061 20.1743C16.2575 20.953 16.3752 21.7331 16.6512 22.4628C16.9272 23.1926 17.3553 23.8553 17.907 24.407L24.076 30.576C24.1885 30.6883 24.341 30.7515 24.5 30.7515C24.659 30.7515 24.8115 30.6883 24.924 30.576Z" stroke="white" stroke-width="1.5" stroke-linecap="round" stroke-linejoin="round"/>
</g>
</g>
<defs>
<clipPath id="clip0_398_877">
<rect width="24" height="24" fill="white" transform="translate(12.5 12)"/>
</clipPath>
</defs>
</svg>
