<svg width="75" height="75" viewBox="0 0 75 75" fill="none" xmlns="http://www.w3.org/2000/svg">
<g clip-path="url(#clip0_227_2045)">
<rect x="0.5" y="0.5" width="74" height="74" rx="37" fill="#373737" stroke="#4B4A4A"/>
<path d="M37.5 52.0834V22.9167" stroke="#858585" stroke-width="2" stroke-linecap="round" stroke-linejoin="round"/>
<path d="M47.7083 43.3334H27.2917C26.5181 43.3334 25.7763 43.0261 25.2293 42.4791C24.6823 41.9321 24.375 41.1902 24.375 40.4167V34.5834C24.375 33.8098 24.6823 33.0679 25.2293 32.521C25.7763 31.974 26.5181 31.6667 27.2917 31.6667H47.7083C48.4819 31.6667 49.2237 31.974 49.7707 32.521C50.3177 33.0679 50.625 33.8098 50.625 34.5834V40.4167C50.625 41.1902 50.3177 41.9321 49.7707 42.4791C49.2237 43.0261 48.4819 43.3334 47.7083 43.3334Z" stroke="#858585" stroke-width="2"/>
</g>
<defs>
<clipPath id="clip0_227_2045">
<rect width="75" height="75" fill="white"/>
</clipPath>
</defs>
</svg>
